# xmcd
#
# Track frame offsets: 
#        150
#        7577
#        21967
#        46332
#        73627
#        99770
#        112207
#        124660
#        202062
#        271832
#        311192
#
# Disc length: 4739 seconds
#
# Revision: 8
# Processed by: cddbd v1.5.2PL0 Copyright (c) Steve Scherf et al.
# Submitted via: ExactAudioCopyFreeDBPlugin 1.0
#
DISCID=9112810b
DTITLE=Grand Funk Railroad - Live - The 1971 Tour
DYEAR=1971
DGENRE=Hard Rock
TTITLE0=Intro
TTITLE1=Are You Ready
TTITLE2=Footstompin' Music
TTITLE3=Paranoid
TTITLE4=I'm Your Captain, Closer To Home
TTITLE5=Hooked On Love
TTITLE6=Get It Together
TTITLE7=T.N.U.C.
TTITLE8=Inside Looking Out
TTITLE9=Gimme Shelter
TTITLE10=Into The Sun
EXTD=YEAR: 1971
EXTT0=
EXTT1=
EXTT2=
EXTT3=
EXTT4=
EXTT5=
EXTT6=
EXTT7=
EXTT8=
EXTT9=
EXTT10=
PLAYORDER=
